<svg width="132" height="61" fill="none" xmlns="http://www.w3.org/2000/svg"><path d="M54.88 4.212A5 5 0 0 1 60.676.16l20.569 3.644a5 5 0 0 1 4.05 5.796l-1.779 10.04 4.538.805.592-3.339 43.318 7.675-4.019 22.682-43.318-7.675.591-3.338-4.537-.804-1.78 10.04a5 5 0 0 1-5.795 4.051l-4.759-.843a12.34 12.34 0 0 1 4.708 11.996l-24.301-4.306a12.34 12.34 0 0 1 8.543-9.648l-4.76-.843a5 5 0 0 1-4.05-5.796l1.779-10.04-5.523-.979-.591 3.339L.833 24.943 4.853 2.26 48.17 9.936l-.591 3.338 5.523.979L54.88 4.212Z" fill="#FEFCF1"/></svg>